<mxfile host="app.diagrams.net" agent="Mozilla/5.0 (Windows NT 10.0; Win64; x64) AppleWebKit/537.36 (KHTML, like Gecko) Chrome/130.0.0.0 Safari/537.36" version="24.8.4" pages="2">
  <diagram name="Architecture prod" id="aaaa8250-4180-3840-79b5-4cada1eebb92">
    <mxGraphModel dx="5736" dy="2984" grid="1" gridSize="10" guides="1" tooltips="1" connect="1" arrows="1" fold="1" page="1" pageScale="1" pageWidth="1200" pageHeight="1600" background="none" math="0" shadow="0">
      <root>
        <mxCell id="0" />
        <mxCell id="1" parent="0" />
        <mxCell id="1a8abee3a6cfdf20-3" value="" style="edgeStyle=isometricEdgeStyle;endArrow=none;html=1;labelBackgroundColor=none;strokeWidth=5;fontFamily=Verdana;fontSize=12;entryX=0.147;entryY=0.797;entryDx=0;entryDy=0;entryPerimeter=0;exitX=0.733;exitY=0.679;exitDx=0;exitDy=0;exitPerimeter=0;" parent="1" edge="1" target="7sjfBeGrYH_YWyBwBAo9-1" source="d5ac148becb70bc-15">
          <mxGeometry width="50" height="100" relative="1" as="geometry">
            <mxPoint x="2831.24" y="1960" as="sourcePoint" />
            <mxPoint x="2690" y="1655.32564" as="targetPoint" />
            <Array as="points">
              <mxPoint x="2781.24" y="1860" />
            </Array>
          </mxGeometry>
        </mxCell>
        <mxCell id="1a8abee3a6cfdf20-25" value="" style="verticalLabelPosition=bottom;html=1;verticalAlign=top;strokeWidth=1;dashed=0;shape=mxgraph.aws3d.arrowhead;aspect=fixed;rounded=1;shadow=0;comic=0;fillColor=none;fontFamily=Verdana;fontSize=12;fontColor=#000000;flipV=1;" parent="1" vertex="1">
          <mxGeometry x="1770" y="1551" width="40" height="23" as="geometry" />
        </mxCell>
        <mxCell id="1a8abee3a6cfdf20-36" value="" style="verticalLabelPosition=bottom;html=1;verticalAlign=top;strokeWidth=1;dashed=0;shape=mxgraph.aws3d.arrowSW;fillColor=#000000;aspect=fixed;rounded=1;shadow=0;comic=0;fontFamily=Verdana;fontSize=12" parent="1" vertex="1">
          <mxGeometry x="2900" y="1100" width="741" height="417.43" as="geometry" />
        </mxCell>
        <mxCell id="d5ac148becb70bc-8" value="" style="verticalLabelPosition=bottom;html=1;verticalAlign=top;strokeWidth=1;dashed=0;shape=mxgraph.aws3d.dashedArrowlessEdge;aspect=fixed;rounded=1;shadow=0;comic=0;fontFamily=Verdana;fontSize=12" parent="1" vertex="1">
          <mxGeometry x="2580" y="520" width="1475.12" height="840" as="geometry" />
        </mxCell>
        <mxCell id="d5ac148becb70bc-9" value="" style="verticalLabelPosition=bottom;html=1;verticalAlign=top;strokeWidth=1;dashed=0;shape=mxgraph.aws3d.dashedArrowlessEdge;aspect=fixed;rounded=1;shadow=0;comic=0;fontFamily=Verdana;fontSize=12" parent="1" vertex="1">
          <mxGeometry x="1781" y="631" width="2475.41" height="1410" as="geometry" />
        </mxCell>
        <mxCell id="d5ac148becb70bc-10" value="" style="verticalLabelPosition=bottom;html=1;verticalAlign=top;strokeWidth=1;dashed=0;shape=mxgraph.aws3d.dashedArrowlessEdge;fillColor=#000000;aspect=fixed;rounded=1;shadow=0;comic=0;fontFamily=Verdana;fontSize=12;fontColor=#000000;flipV=1;" parent="1" vertex="1">
          <mxGeometry x="2590" y="260" width="451" height="255.84" as="geometry" />
        </mxCell>
        <mxCell id="1a8abee3a6cfdf20-2" value="" style="verticalLabelPosition=bottom;html=1;verticalAlign=top;strokeWidth=1;dashed=0;shape=mxgraph.aws3d.secureConnection;fillColor=#000000;strokeColor=#ffffff;aspect=fixed;rounded=1;shadow=0;comic=0;fontSize=12;direction=east;" parent="1" vertex="1">
          <mxGeometry x="3112.13" y="581.7" width="114.87" height="67.92" as="geometry" />
        </mxCell>
        <mxCell id="d5ac148becb70bc-15" value="" style="verticalLabelPosition=bottom;html=1;verticalAlign=top;strokeWidth=1;dashed=0;shape=mxgraph.aws3d.arrowhead;aspect=fixed;rounded=1;shadow=0;comic=0;fillColor=none;fontFamily=Verdana;fontSize=12;fontColor=#000000;flipV=1;" parent="1" vertex="1">
          <mxGeometry x="2795.5" y="2068" width="40" height="23" as="geometry" />
        </mxCell>
        <mxCell id="d5ac148becb70bc-16" value="" style="verticalLabelPosition=bottom;html=1;verticalAlign=top;strokeWidth=1;dashed=0;shape=mxgraph.aws3d.secureConnection;fillColor=#000000;strokeColor=#ffffff;aspect=fixed;rounded=1;shadow=0;comic=0;fontSize=12" parent="1" vertex="1">
          <mxGeometry x="3630" y="1036" width="125.06" height="74" as="geometry" />
        </mxCell>
        <mxCell id="7sjfBeGrYH_YWyBwBAo9-1" value="&lt;font size=&quot;1&quot; style=&quot;&quot;&gt;&lt;b style=&quot;font-size: 30px;&quot;&gt;API FLASK&lt;/b&gt;&lt;/font&gt;" style="aspect=fixed;sketch=0;html=1;dashed=0;whitespace=wrap;verticalLabelPosition=bottom;verticalAlign=top;fillColor=#2875E2;strokeColor=#ffffff;points=[[0.005,0.63,0],[0.1,0.2,0],[0.9,0.2,0],[0.5,0,0],[0.995,0.63,0],[0.72,0.99,0],[0.5,1,0],[0.28,0.99,0]];shape=mxgraph.kubernetes.icon2;kubernetesLabel=1;prIcon=api" vertex="1" parent="1">
          <mxGeometry x="2708.43" y="1470" width="214.13" height="204.6" as="geometry" />
        </mxCell>
        <mxCell id="7sjfBeGrYH_YWyBwBAo9-3" value="Modèle de classification temporelle multi-classe" style="outlineConnect=0;dashed=0;verticalLabelPosition=bottom;verticalAlign=top;align=center;html=1;shape=mxgraph.aws3.machine_learning;fillColor=#2E73B8;gradientColor=none;fontSize=25;fontStyle=1" vertex="1" parent="1">
          <mxGeometry x="2540" y="2050" width="311" height="330" as="geometry" />
        </mxCell>
        <mxCell id="7sjfBeGrYH_YWyBwBAo9-5" value="" style="edgeStyle=isometricEdgeStyle;endArrow=none;html=1;labelBackgroundColor=none;strokeColor=#000000;strokeWidth=5;fontFamily=Verdana;fontSize=12;entryX=0.005;entryY=0.63;entryDx=0;entryDy=0;entryPerimeter=0;exitX=0.676;exitY=0.819;exitDx=0;exitDy=0;exitPerimeter=0;" edge="1" parent="1" source="1a8abee3a6cfdf20-25" target="7sjfBeGrYH_YWyBwBAo9-1">
          <mxGeometry width="50" height="100" relative="1" as="geometry">
            <mxPoint x="1770" y="1560" as="sourcePoint" />
            <mxPoint x="2694.334" y="1558.7000000000003" as="targetPoint" />
            <Array as="points">
              <mxPoint x="2047" y="1608.6799999999998" />
            </Array>
          </mxGeometry>
        </mxCell>
        <mxCell id="hHlsGOCPzUG4bOQRTyYM-1" value="" style="verticalLabelPosition=bottom;html=1;verticalAlign=top;strokeWidth=1;dashed=0;shape=mxgraph.aws3d.dashedArrowlessEdge;fillColor=#000000;aspect=fixed;rounded=1;shadow=0;comic=0;fontFamily=Verdana;fontSize=12;fontColor=#000000;flipV=1;" vertex="1" parent="1">
          <mxGeometry x="4064.12" y="1100" width="451" height="255.84" as="geometry" />
        </mxCell>
        <mxCell id="hHlsGOCPzUG4bOQRTyYM-2" value="" style="verticalLabelPosition=bottom;html=1;verticalAlign=top;strokeWidth=1;dashed=0;shape=mxgraph.aws3d.dashedArrowlessEdge;aspect=fixed;rounded=1;shadow=0;comic=0;fontFamily=Verdana;fontSize=12" vertex="1" parent="1">
          <mxGeometry x="3050" y="270" width="1475.12" height="840" as="geometry" />
        </mxCell>
        <mxCell id="hHlsGOCPzUG4bOQRTyYM-4" value="" style="verticalLabelPosition=bottom;html=1;verticalAlign=top;strokeWidth=1;align=center;outlineConnect=0;dashed=0;outlineConnect=0;shape=mxgraph.aws3d.arrowSE;fillColor=#000000;aspect=fixed;" vertex="1" parent="1">
          <mxGeometry x="3230" y="649.62" width="509.1600000000001" height="290.38" as="geometry" />
        </mxCell>
        <mxCell id="hHlsGOCPzUG4bOQRTyYM-7" value="" style="aspect=fixed;sketch=0;html=1;dashed=0;whitespace=wrap;verticalLabelPosition=bottom;verticalAlign=top;fillColor=#2875E2;strokeColor=#ffffff;points=[[0.005,0.63,0],[0.1,0.2,0],[0.9,0.2,0],[0.5,0,0],[0.995,0.63,0],[0.72,0.99,0],[0.5,1,0],[0.28,0.99,0]];shape=mxgraph.kubernetes.icon2;kubernetesLabel=1;prIcon=user" vertex="1" parent="1">
          <mxGeometry x="2982.24" y="130" width="129.89" height="124.16" as="geometry" />
        </mxCell>
        <mxCell id="hHlsGOCPzUG4bOQRTyYM-11" value="&lt;b&gt;&lt;font style=&quot;font-size: 21px;&quot;&gt;Service Middleware&lt;/font&gt;&lt;/b&gt;" style="outlineConnect=0;dashed=0;verticalLabelPosition=bottom;verticalAlign=top;align=center;html=1;shape=mxgraph.aws3.router;fillColor=#F58534;gradientColor=none;" vertex="1" parent="1">
          <mxGeometry x="3730" y="880" width="261" height="190" as="geometry" />
        </mxCell>
        <mxCell id="hHlsGOCPzUG4bOQRTyYM-19" value="&lt;b&gt;&lt;font style=&quot;font-size: 26px;&quot;&gt;Système intégré&lt;/font&gt;&lt;/b&gt;" style="verticalLabelPosition=bottom;html=1;verticalAlign=top;strokeWidth=1;align=center;outlineConnect=0;dashed=0;outlineConnect=0;shape=mxgraph.aws3d.application;fillColor=#4286c5;strokeColor=#57A2D8;aspect=fixed;" vertex="1" parent="1">
          <mxGeometry x="2900" y="353.28000000000003" width="197.17" height="218.8" as="geometry" />
        </mxCell>
        <mxCell id="hHlsGOCPzUG4bOQRTyYM-20" value="" style="image;html=1;image=img/lib/clip_art/general/Gear_128x128.png" vertex="1" parent="1">
          <mxGeometry x="3041" y="390" width="181" height="170" as="geometry" />
        </mxCell>
        <mxCell id="hHlsGOCPzUG4bOQRTyYM-21" value="&lt;span style=&quot;font-size: 25px; font-weight: 700;&quot;&gt;Modèle de regression&lt;/span&gt;" style="outlineConnect=0;dashed=0;verticalLabelPosition=bottom;verticalAlign=top;align=center;html=1;shape=mxgraph.aws3.lex;fillColor=#2E73B8;gradientColor=none;" vertex="1" parent="1">
          <mxGeometry x="1520" y="1500" width="250" height="240" as="geometry" />
        </mxCell>
        <mxCell id="hHlsGOCPzUG4bOQRTyYM-23" value="" style="verticalLabelPosition=bottom;html=1;verticalAlign=top;strokeWidth=1;dashed=0;shape=mxgraph.aws3d.dashedArrowlessEdge;fillColor=#000000;aspect=fixed;rounded=1;shadow=0;comic=0;fontFamily=Verdana;fontSize=12;fontColor=#000000;flipV=1;" vertex="1" parent="1">
          <mxGeometry x="2810" y="2041" width="1441" height="817.44" as="geometry" />
        </mxCell>
        <mxCell id="hHlsGOCPzUG4bOQRTyYM-24" value="" style="verticalLabelPosition=bottom;html=1;verticalAlign=top;strokeWidth=1;dashed=0;shape=mxgraph.aws3d.dashedArrowlessEdge;fillColor=#000000;aspect=fixed;rounded=1;shadow=0;comic=0;fontFamily=Verdana;fontSize=12;fontColor=#000000;flipV=1;" vertex="1" parent="1">
          <mxGeometry x="340" y="631" width="1441" height="817.44" as="geometry" />
        </mxCell>
        <mxCell id="hHlsGOCPzUG4bOQRTyYM-25" value="" style="verticalLabelPosition=bottom;html=1;verticalAlign=top;strokeWidth=1;dashed=0;shape=mxgraph.aws3d.dashedArrowlessEdge;aspect=fixed;rounded=1;shadow=0;comic=0;fontFamily=Verdana;fontSize=12" vertex="1" parent="1">
          <mxGeometry x="340" y="1448.44" width="2475.41" height="1410" as="geometry" />
        </mxCell>
        <mxCell id="hHlsGOCPzUG4bOQRTyYM-26" value="&lt;b&gt;&lt;font style=&quot;font-size: 26px;&quot;&gt;Système intégré&lt;/font&gt;&lt;/b&gt;" style="verticalLabelPosition=bottom;html=1;verticalAlign=top;strokeWidth=1;align=center;outlineConnect=0;dashed=0;outlineConnect=0;shape=mxgraph.aws3d.application;fillColor=#4286c5;strokeColor=#57A2D8;aspect=fixed;" vertex="1" parent="1">
          <mxGeometry x="200" y="1780" width="210" height="233.04" as="geometry" />
        </mxCell>
        <mxCell id="hHlsGOCPzUG4bOQRTyYM-27" value="" style="image;html=1;image=img/lib/clip_art/general/Gear_128x128.png" vertex="1" parent="1">
          <mxGeometry x="341" y="1816.7199999999998" width="181" height="170" as="geometry" />
        </mxCell>
        <mxCell id="hHlsGOCPzUG4bOQRTyYM-28" value="&lt;b&gt;&lt;font style=&quot;font-size: 46px;&quot;&gt;Back-End&lt;br&gt;&lt;/font&gt;&lt;/b&gt;" style="text;strokeColor=none;align=center;fillColor=none;html=1;verticalAlign=middle;whiteSpace=wrap;rounded=0;" vertex="1" parent="1">
          <mxGeometry x="3739.16" y="1960" width="410" height="160" as="geometry" />
        </mxCell>
        <mxCell id="hHlsGOCPzUG4bOQRTyYM-29" value="&lt;b&gt;&lt;font style=&quot;font-size: 46px;&quot;&gt;Back-End&lt;br&gt;&lt;/font&gt;&lt;/b&gt;" style="text;strokeColor=none;align=center;fillColor=none;html=1;verticalAlign=middle;whiteSpace=wrap;rounded=0;" vertex="1" parent="1">
          <mxGeometry x="4020" y="1036" width="410" height="160" as="geometry" />
        </mxCell>
        <mxCell id="hHlsGOCPzUG4bOQRTyYM-30" value="" style="verticalLabelPosition=bottom;html=1;verticalAlign=top;strokeWidth=1;align=center;outlineConnect=0;dashed=0;outlineConnect=0;shape=mxgraph.aws3d.arrowSE;fillColor=#000000;aspect=fixed;rotation=330;" vertex="1" parent="1">
          <mxGeometry x="3822.26" y="2871.11" width="581.56" height="332.32" as="geometry" />
        </mxCell>
        <mxCell id="hHlsGOCPzUG4bOQRTyYM-31" value="&lt;b&gt;&lt;font style=&quot;font-size: 21px;&quot;&gt;Service Middleware&lt;/font&gt;&lt;/b&gt;" style="outlineConnect=0;dashed=0;verticalLabelPosition=bottom;verticalAlign=top;align=center;html=1;shape=mxgraph.aws3.router;fillColor=#F58534;gradientColor=none;" vertex="1" parent="1">
          <mxGeometry x="1170" y="2380" width="261" height="190" as="geometry" />
        </mxCell>
        <mxCell id="hHlsGOCPzUG4bOQRTyYM-33" value="" style="aspect=fixed;sketch=0;html=1;dashed=0;whitespace=wrap;verticalLabelPosition=bottom;verticalAlign=top;fillColor=#2875E2;strokeColor=#ffffff;points=[[0.005,0.63,0],[0.1,0.2,0],[0.9,0.2,0],[0.5,0,0],[0.995,0.63,0],[0.72,0.99,0],[0.5,1,0],[0.28,0.99,0]];shape=mxgraph.kubernetes.icon2;kubernetesLabel=1;prIcon=api" vertex="1" parent="1">
          <mxGeometry x="2110.0000000000005" y="2850" width="317.78" height="303.64" as="geometry" />
        </mxCell>
        <mxCell id="hHlsGOCPzUG4bOQRTyYM-35" value="&lt;h3 style=&quot;font-size: 42px;&quot;&gt;&lt;strong style=&quot;font-size: 42px;&quot;&gt;Système Intégré de Production&lt;/strong&gt;&lt;/h3&gt;&lt;ul style=&quot;font-size: 42px;&quot;&gt;&lt;li style=&quot;font-size: 42px;&quot;&gt;&lt;strong style=&quot;font-size: 42px;&quot;&gt;Rôle&lt;/strong&gt; : Génère et envoie des données structurées (un fichier CSV ou JSON) au service middleware.&lt;/li&gt;&lt;li style=&quot;font-size: 42px;&quot;&gt;&lt;strong style=&quot;font-size: 42px;&quot;&gt;Sécurité&lt;/strong&gt; : Peut utiliser un mécanisme de signature ou de chiffrement pour assurer la sécurité des données envoyées.&lt;/li&gt;&lt;/ul&gt;" style="text;strokeColor=none;align=left;fillColor=none;html=1;verticalAlign=middle;whiteSpace=wrap;rounded=0;fontSize=42;" vertex="1" parent="1">
          <mxGeometry x="50" y="2110" width="720" height="651.2" as="geometry" />
        </mxCell>
        <mxCell id="hHlsGOCPzUG4bOQRTyYM-36" value="&lt;h3&gt;&lt;strong&gt;Service Middleware&lt;/strong&gt;&lt;/h3&gt;&lt;ul&gt;&lt;li&gt;&lt;strong&gt;Rôle&lt;/strong&gt; : Reçoit les données du système intégré, effectue une première validation, et les prépare pour l&#39;envoi à l&#39;API de prédiction.&lt;/li&gt;&lt;li&gt;&lt;strong&gt;Authentification avec l&#39;API de Prédiction&lt;/strong&gt; :&lt;ul&gt;&lt;li&gt;Le service middleware récupère un token JWT auprès d&#39;un serveur d&#39;authentification sécurisé.&lt;/li&gt;&lt;li&gt;Le token est stocké de manière sécurisée (en mémoire ou dans un stockage sécurisé temporaire) et utilisé pour chaque requête sortante.&lt;/li&gt;&lt;/ul&gt;&lt;/li&gt;&lt;li&gt;&lt;strong&gt;Validation des Données&lt;/strong&gt; :&lt;ul&gt;&lt;li&gt;Effectue des vérifications sur les données reçues (taille, format, contenu) avant de les envoyer.&lt;/li&gt;&lt;/ul&gt;&lt;/li&gt;&lt;li&gt;&lt;strong&gt;Envoi des Données&lt;/strong&gt; :&lt;ul&gt;&lt;li&gt;Le service envoie les données à l&#39;API de prédiction via une requête HTTP sécurisée en utilisant le protocole HTTPS.&lt;/li&gt;&lt;/ul&gt;&lt;/li&gt;&lt;/ul&gt;" style="text;strokeColor=none;align=left;fillColor=none;html=1;verticalAlign=middle;whiteSpace=wrap;rounded=0;fontSize=42;" vertex="1" parent="1">
          <mxGeometry x="800" y="2660" width="890" height="1280" as="geometry" />
        </mxCell>
        <mxCell id="hHlsGOCPzUG4bOQRTyYM-37" value="SSL" style="sketch=0;outlineConnect=0;fontColor=#232F3E;gradientColor=none;fillColor=#232F3D;strokeColor=none;dashed=0;verticalLabelPosition=bottom;verticalAlign=top;align=center;html=1;fontSize=35;fontStyle=1;aspect=fixed;pointerEvents=1;shape=mxgraph.aws4.ssl_padlock;" vertex="1" parent="1">
          <mxGeometry x="3196.5" y="1080" width="148" height="144.21" as="geometry" />
        </mxCell>
        <mxCell id="hHlsGOCPzUG4bOQRTyYM-38" value="&lt;h3&gt; &lt;strong&gt;API de Prédiction&lt;/strong&gt;&lt;/h3&gt;&lt;ul&gt;&lt;li&gt;&lt;strong&gt;Rôle&lt;/strong&gt; : Reçoit les requêtes du service middleware, valide l&#39;authenticité de la requête, traite les données et appelle le modèle de prédiction.&lt;/li&gt;&lt;li&gt;&lt;strong&gt;Vérification d&#39;Authentification&lt;/strong&gt; :&lt;ul&gt;&lt;li&gt;L&#39;API extrait le token JWT de l&#39;en-tête &lt;code&gt;Authorization&lt;/code&gt; et le valide en utilisant sa clé publique.&lt;/li&gt;&lt;li&gt;Si l&#39;authentification est réussie, l&#39;API passe à l&#39;étape suivante, sinon elle rejette la requête avec un code d&#39;erreur approprié (ex. 401 Unauthorized).&lt;/li&gt;&lt;/ul&gt;&lt;/li&gt;&lt;li&gt;&lt;strong&gt;Validation des Données&lt;/strong&gt;&amp;nbsp;:&lt;/li&gt;&lt;ul&gt;&lt;li&gt;Effectue des vérifications supplémentaires sur les données reçues avant de les envoyer au modèles.&lt;/li&gt;&lt;/ul&gt;&lt;li&gt;&lt;b&gt;Envoyer au(x) modèles&lt;/b&gt;&amp;nbsp;:&lt;/li&gt;&lt;ul&gt;&lt;li&gt;Envoie au modele de regression pour completer les données si présence de données manquante a un seuil tolérable.&lt;/li&gt;&lt;li&gt;Envoie au modele de classification temporelle.&amp;nbsp;&lt;/li&gt;&lt;/ul&gt;&lt;li&gt;&lt;strong&gt;Envoi des Résultats au Service Middleware&lt;/strong&gt; :&lt;ul&gt;&lt;li&gt;L&#39;API renvoie les résultats des prédictions au service middleware via une réponse HTTP sécurisée.&lt;/li&gt;&lt;/ul&gt;&lt;/li&gt;&lt;/ul&gt;" style="text;strokeColor=none;align=left;fillColor=none;html=1;verticalAlign=middle;whiteSpace=wrap;rounded=0;fontSize=42;" vertex="1" parent="1">
          <mxGeometry x="1990" y="3130" width="1010" height="1470" as="geometry" />
        </mxCell>
        <mxCell id="hHlsGOCPzUG4bOQRTyYM-39" value="Modèle de classification temporelle multi-classe" style="outlineConnect=0;dashed=0;verticalLabelPosition=bottom;verticalAlign=top;align=center;html=1;shape=mxgraph.aws3.machine_learning;fillColor=#2E73B8;gradientColor=none;fontSize=25;fontStyle=1" vertex="1" parent="1">
          <mxGeometry x="2952.13" y="2802.1" width="160" height="185" as="geometry" />
        </mxCell>
        <mxCell id="hHlsGOCPzUG4bOQRTyYM-40" value="&lt;b&gt;&lt;font style=&quot;font-size: 21px;&quot;&gt;Service Middleware&lt;/font&gt;&lt;/b&gt;" style="outlineConnect=0;dashed=0;verticalLabelPosition=bottom;verticalAlign=top;align=center;html=1;shape=mxgraph.aws3.router;fillColor=#F58534;gradientColor=none;" vertex="1" parent="1">
          <mxGeometry x="3478.16" y="2960" width="261" height="190" as="geometry" />
        </mxCell>
        <mxCell id="hHlsGOCPzUG4bOQRTyYM-41" value="&lt;b&gt;&lt;font style=&quot;font-size: 26px;&quot;&gt;Système intégré&lt;/font&gt;&lt;/b&gt;" style="verticalLabelPosition=bottom;html=1;verticalAlign=top;strokeWidth=1;align=center;outlineConnect=0;dashed=0;outlineConnect=0;shape=mxgraph.aws3d.application;fillColor=#4286c5;strokeColor=#57A2D8;aspect=fixed;" vertex="1" parent="1">
          <mxGeometry x="4470" y="2934.84" width="197.17" height="218.8" as="geometry" />
        </mxCell>
        <mxCell id="hHlsGOCPzUG4bOQRTyYM-42" value="" style="image;html=1;image=img/lib/clip_art/general/Gear_128x128.png" vertex="1" parent="1">
          <mxGeometry x="4611" y="2971.56" width="181" height="170" as="geometry" />
        </mxCell>
        <mxCell id="hHlsGOCPzUG4bOQRTyYM-44" value="&lt;h3&gt;&lt;strong&gt;Service Middleware&lt;/strong&gt;&lt;/h3&gt;&lt;ul&gt;&lt;li&gt;&lt;strong&gt;Traitement des Résultats&lt;/strong&gt; :&lt;ul&gt;&lt;li&gt;Le service middleware peut formater ou convertir les résultats selon les besoins avant de les transmettre au système intégré.&lt;/li&gt;&lt;/ul&gt;&lt;/li&gt;&lt;li&gt;&lt;strong&gt;Transmission au Système Intégré&lt;/strong&gt; :&lt;ul&gt;&lt;li&gt;Les résultats sont envoyés au système intégré pour qu&#39;ils soient utilisés ou affichés dans des rapports.&lt;/li&gt;&lt;/ul&gt;&lt;/li&gt;&lt;/ul&gt;" style="text;strokeColor=none;align=left;fillColor=none;html=1;verticalAlign=middle;whiteSpace=wrap;rounded=0;fontSize=42;" vertex="1" parent="1">
          <mxGeometry x="3330" y="3270" width="1010" height="660" as="geometry" />
        </mxCell>
        <mxCell id="hHlsGOCPzUG4bOQRTyYM-45" value="" style="verticalLabelPosition=bottom;html=1;verticalAlign=top;strokeWidth=1;align=center;outlineConnect=0;dashed=0;outlineConnect=0;shape=mxgraph.aws3d.arrowSE;fillColor=#000000;aspect=fixed;rotation=359;" vertex="1" parent="1">
          <mxGeometry x="1449.06" y="2540" width="660.94" height="377.68" as="geometry" />
        </mxCell>
        <mxCell id="hHlsGOCPzUG4bOQRTyYM-46" value="" style="verticalLabelPosition=bottom;html=1;verticalAlign=top;strokeWidth=1;align=center;outlineConnect=0;dashed=0;outlineConnect=0;shape=mxgraph.aws3d.arrowSE;fillColor=#000000;aspect=fixed;rotation=359;" vertex="1" parent="1">
          <mxGeometry x="509.05999999999995" y="2019.04" width="660.94" height="377.68" as="geometry" />
        </mxCell>
        <mxCell id="hHlsGOCPzUG4bOQRTyYM-47" value="" style="verticalLabelPosition=bottom;html=1;verticalAlign=top;strokeWidth=1;align=center;outlineConnect=0;dashed=0;outlineConnect=0;shape=mxgraph.aws3d.arrowSE;fillColor=#000000;aspect=fixed;rotation=330;" vertex="1" parent="1">
          <mxGeometry x="2551.81" y="2802.1" width="857.5" height="490" as="geometry" />
        </mxCell>
        <mxCell id="hHlsGOCPzUG4bOQRTyYM-48" value="&lt;span style=&quot;font-size: 25px; font-weight: 700;&quot;&gt;Modèle de regression&lt;/span&gt;" style="outlineConnect=0;dashed=0;verticalLabelPosition=bottom;verticalAlign=top;align=center;html=1;shape=mxgraph.aws3.lex;fillColor=#2E73B8;gradientColor=none;" vertex="1" parent="1">
          <mxGeometry x="2952.13" y="3060" width="170" height="150" as="geometry" />
        </mxCell>
        <mxCell id="OQBo0qPHunC7vxJaqfBw-2" value="&lt;font style=&quot;font-size: 26px;&quot;&gt;&amp;nbsp; &amp;nbsp;SaaS&lt;/font&gt;" style="label;whiteSpace=wrap;html=1;image=img/clipart/Gear_128x128.png" vertex="1" parent="1">
          <mxGeometry x="4256.41" y="2039.5" width="190" height="80" as="geometry" />
        </mxCell>
        <mxCell id="OQBo0qPHunC7vxJaqfBw-3" value="&lt;font style=&quot;font-size: 26px;&quot;&gt;&amp;nbsp; En Prem&lt;/font&gt;" style="label;whiteSpace=wrap;html=1;image=img/clipart/Gear_128x128.png" vertex="1" parent="1">
          <mxGeometry x="4515.12" y="1100" width="190" height="80" as="geometry" />
        </mxCell>
      </root>
    </mxGraphModel>
  </diagram>
  <diagram name="Architecture simulation" id="F5n3TCvaJlW5XLyTN0AO">
    <mxGraphModel dx="8370" dy="3730" grid="1" gridSize="10" guides="1" tooltips="1" connect="1" arrows="1" fold="1" page="1" pageScale="1" pageWidth="1200" pageHeight="1600" background="none" math="0" shadow="0">
      <root>
        <mxCell id="MEh04FWlceh6RmGHE6Cu-0" />
        <mxCell id="MEh04FWlceh6RmGHE6Cu-1" parent="MEh04FWlceh6RmGHE6Cu-0" />
        <mxCell id="MEh04FWlceh6RmGHE6Cu-2" value="" style="edgeStyle=isometricEdgeStyle;endArrow=none;html=1;labelBackgroundColor=none;strokeWidth=5;fontFamily=Verdana;fontSize=12;entryX=0.28;entryY=0.99;entryDx=0;entryDy=0;entryPerimeter=0;exitX=0.733;exitY=0.679;exitDx=0;exitDy=0;exitPerimeter=0;" edge="1" parent="MEh04FWlceh6RmGHE6Cu-1" source="MEh04FWlceh6RmGHE6Cu-10" target="MEh04FWlceh6RmGHE6Cu-12">
          <mxGeometry width="50" height="100" relative="1" as="geometry">
            <mxPoint x="2191.24" y="2550" as="sourcePoint" />
            <mxPoint x="2050" y="2245.32564" as="targetPoint" />
            <Array as="points">
              <mxPoint x="2141.24" y="2450" />
            </Array>
          </mxGeometry>
        </mxCell>
        <mxCell id="MEh04FWlceh6RmGHE6Cu-3" value="" style="verticalLabelPosition=bottom;html=1;verticalAlign=top;strokeWidth=1;dashed=0;shape=mxgraph.aws3d.arrowhead;aspect=fixed;rounded=1;shadow=0;comic=0;fillColor=none;fontFamily=Verdana;fontSize=12;fontColor=#000000;flipV=1;" vertex="1" parent="MEh04FWlceh6RmGHE6Cu-1">
          <mxGeometry x="1130" y="2141" width="40" height="23" as="geometry" />
        </mxCell>
        <mxCell id="MEh04FWlceh6RmGHE6Cu-6" value="" style="verticalLabelPosition=bottom;html=1;verticalAlign=top;strokeWidth=1;dashed=0;shape=mxgraph.aws3d.dashedArrowlessEdge;aspect=fixed;rounded=1;shadow=0;comic=0;fontFamily=Verdana;fontSize=12" vertex="1" parent="MEh04FWlceh6RmGHE6Cu-1">
          <mxGeometry x="1850" y="1424.6" width="1475.12" height="840" as="geometry" />
        </mxCell>
        <mxCell id="MEh04FWlceh6RmGHE6Cu-7" value="" style="verticalLabelPosition=bottom;html=1;verticalAlign=top;strokeWidth=1;dashed=0;shape=mxgraph.aws3d.dashedArrowlessEdge;aspect=fixed;rounded=1;shadow=0;comic=0;fontFamily=Verdana;fontSize=12" vertex="1" parent="MEh04FWlceh6RmGHE6Cu-1">
          <mxGeometry x="1303.69" y="1460" width="2106.74" height="1200" as="geometry" />
        </mxCell>
        <mxCell id="MEh04FWlceh6RmGHE6Cu-8" value="" style="verticalLabelPosition=bottom;html=1;verticalAlign=top;strokeWidth=1;dashed=0;shape=mxgraph.aws3d.dashedArrowlessEdge;fillColor=#000000;aspect=fixed;rounded=1;shadow=0;comic=0;fontFamily=Verdana;fontSize=12;fontColor=#000000;flipV=1;" vertex="1" parent="MEh04FWlceh6RmGHE6Cu-1">
          <mxGeometry x="1860" y="1164.6" width="451" height="255.84" as="geometry" />
        </mxCell>
        <mxCell id="MEh04FWlceh6RmGHE6Cu-9" value="" style="verticalLabelPosition=bottom;html=1;verticalAlign=top;strokeWidth=1;dashed=0;shape=mxgraph.aws3d.secureConnection;fillColor=#000000;strokeColor=#ffffff;aspect=fixed;rounded=1;shadow=0;comic=0;fontSize=12;direction=east;" vertex="1" parent="MEh04FWlceh6RmGHE6Cu-1">
          <mxGeometry x="2610" y="1790" width="114.87" height="67.92" as="geometry" />
        </mxCell>
        <mxCell id="MEh04FWlceh6RmGHE6Cu-10" value="" style="verticalLabelPosition=bottom;html=1;verticalAlign=top;strokeWidth=1;dashed=0;shape=mxgraph.aws3d.arrowhead;aspect=fixed;rounded=1;shadow=0;comic=0;fillColor=none;fontFamily=Verdana;fontSize=12;fontColor=#000000;flipV=1;" vertex="1" parent="MEh04FWlceh6RmGHE6Cu-1">
          <mxGeometry x="2155.5" y="2658" width="40" height="23" as="geometry" />
        </mxCell>
        <mxCell id="MEh04FWlceh6RmGHE6Cu-11" value="" style="verticalLabelPosition=bottom;html=1;verticalAlign=top;strokeWidth=1;dashed=0;shape=mxgraph.aws3d.secureConnection;fillColor=#000000;strokeColor=#ffffff;aspect=fixed;rounded=1;shadow=0;comic=0;fontSize=12" vertex="1" parent="MEh04FWlceh6RmGHE6Cu-1">
          <mxGeometry x="3197.94" y="1390.8" width="125.06" height="74" as="geometry" />
        </mxCell>
        <mxCell id="MEh04FWlceh6RmGHE6Cu-12" value="&lt;b&gt;&lt;font style=&quot;font-size: 28px;&quot;&gt;API FLASK&lt;/font&gt;&lt;/b&gt;" style="aspect=fixed;sketch=0;html=1;dashed=0;whitespace=wrap;verticalLabelPosition=bottom;verticalAlign=top;fillColor=#2875E2;strokeColor=#ffffff;points=[[0.005,0.63,0],[0.1,0.2,0],[0.9,0.2,0],[0.5,0,0],[0.995,0.63,0],[0.72,0.99,0],[0.5,1,0],[0.28,0.99,0]];shape=mxgraph.kubernetes.icon2;kubernetesLabel=1;prIcon=api" vertex="1" parent="MEh04FWlceh6RmGHE6Cu-1">
          <mxGeometry x="2055.0499999999997" y="2060" width="214.13" height="204.6" as="geometry" />
        </mxCell>
        <mxCell id="MEh04FWlceh6RmGHE6Cu-13" value="Modèle de classification temporelle multi-classe" style="outlineConnect=0;dashed=0;verticalLabelPosition=bottom;verticalAlign=top;align=center;html=1;shape=mxgraph.aws3.machine_learning;fillColor=#2E73B8;gradientColor=none;fontSize=25;fontStyle=1" vertex="1" parent="MEh04FWlceh6RmGHE6Cu-1">
          <mxGeometry x="1900" y="2640" width="311" height="330" as="geometry" />
        </mxCell>
        <mxCell id="MEh04FWlceh6RmGHE6Cu-14" value="" style="edgeStyle=isometricEdgeStyle;endArrow=none;html=1;labelBackgroundColor=none;strokeColor=#000000;strokeWidth=5;fontFamily=Verdana;fontSize=12;entryX=0.135;entryY=0.802;entryDx=0;entryDy=0;entryPerimeter=0;exitX=0.676;exitY=0.819;exitDx=0;exitDy=0;exitPerimeter=0;" edge="1" parent="MEh04FWlceh6RmGHE6Cu-1" source="MEh04FWlceh6RmGHE6Cu-3" target="MEh04FWlceh6RmGHE6Cu-12">
          <mxGeometry width="50" height="100" relative="1" as="geometry">
            <mxPoint x="1130" y="2150" as="sourcePoint" />
            <mxPoint x="2054.334" y="2148.7" as="targetPoint" />
            <Array as="points">
              <mxPoint x="1407" y="2198.68" />
            </Array>
          </mxGeometry>
        </mxCell>
        <mxCell id="MEh04FWlceh6RmGHE6Cu-15" value="" style="verticalLabelPosition=bottom;html=1;verticalAlign=top;strokeWidth=1;dashed=0;shape=mxgraph.aws3d.dashedArrowlessEdge;fillColor=#000000;aspect=fixed;rounded=1;shadow=0;comic=0;fontFamily=Verdana;fontSize=12;fontColor=#000000;flipV=1;" vertex="1" parent="MEh04FWlceh6RmGHE6Cu-1">
          <mxGeometry x="3334.12" y="2004.6" width="451" height="255.84" as="geometry" />
        </mxCell>
        <mxCell id="MEh04FWlceh6RmGHE6Cu-16" value="" style="verticalLabelPosition=bottom;html=1;verticalAlign=top;strokeWidth=1;dashed=0;shape=mxgraph.aws3d.dashedArrowlessEdge;aspect=fixed;rounded=1;shadow=0;comic=0;fontFamily=Verdana;fontSize=12" vertex="1" parent="MEh04FWlceh6RmGHE6Cu-1">
          <mxGeometry x="2320" y="1174.6" width="1475.12" height="840" as="geometry" />
        </mxCell>
        <mxCell id="MEh04FWlceh6RmGHE6Cu-18" value="" style="aspect=fixed;sketch=0;html=1;dashed=0;whitespace=wrap;verticalLabelPosition=bottom;verticalAlign=top;fillColor=#2875E2;strokeColor=#ffffff;points=[[0.005,0.63,0],[0.1,0.2,0],[0.9,0.2,0],[0.5,0,0],[0.995,0.63,0],[0.72,0.99,0],[0.5,1,0],[0.28,0.99,0]];shape=mxgraph.kubernetes.icon2;kubernetesLabel=1;prIcon=user" vertex="1" parent="MEh04FWlceh6RmGHE6Cu-1">
          <mxGeometry x="3270.16" y="1240.8" width="177.85" height="170" as="geometry" />
        </mxCell>
        <mxCell id="MEh04FWlceh6RmGHE6Cu-23" value="&lt;span style=&quot;font-size: 25px; font-weight: 700;&quot;&gt;Modèle de regression&lt;/span&gt;" style="outlineConnect=0;dashed=0;verticalLabelPosition=bottom;verticalAlign=top;align=center;html=1;shape=mxgraph.aws3.lex;fillColor=#2E73B8;gradientColor=none;" vertex="1" parent="MEh04FWlceh6RmGHE6Cu-1">
          <mxGeometry x="880" y="2090" width="250" height="240" as="geometry" />
        </mxCell>
        <mxCell id="MEh04FWlceh6RmGHE6Cu-24" value="" style="verticalLabelPosition=bottom;html=1;verticalAlign=top;strokeWidth=1;dashed=0;shape=mxgraph.aws3d.dashedArrowlessEdge;fillColor=#000000;aspect=fixed;rounded=1;shadow=0;comic=0;fontFamily=Verdana;fontSize=12;fontColor=#000000;flipV=1;" vertex="1" parent="MEh04FWlceh6RmGHE6Cu-1">
          <mxGeometry x="2269.18" y="2660" width="1145.83" height="650" as="geometry" />
        </mxCell>
        <mxCell id="MEh04FWlceh6RmGHE6Cu-25" value="" style="verticalLabelPosition=bottom;html=1;verticalAlign=top;strokeWidth=1;dashed=0;shape=mxgraph.aws3d.dashedArrowlessEdge;fillColor=#000000;aspect=fixed;rounded=1;shadow=0;comic=0;fontFamily=Verdana;fontSize=12;fontColor=#000000;flipV=1;" vertex="1" parent="MEh04FWlceh6RmGHE6Cu-1">
          <mxGeometry x="180" y="1470" width="1123.69" height="637.44" as="geometry" />
        </mxCell>
        <mxCell id="MEh04FWlceh6RmGHE6Cu-26" value="" style="verticalLabelPosition=bottom;html=1;verticalAlign=top;strokeWidth=1;dashed=0;shape=mxgraph.aws3d.dashedArrowlessEdge;aspect=fixed;rounded=1;shadow=0;comic=0;fontFamily=Verdana;fontSize=12" vertex="1" parent="MEh04FWlceh6RmGHE6Cu-1">
          <mxGeometry x="180" y="2120" width="2089.18" height="1190" as="geometry" />
        </mxCell>
        <mxCell id="MEh04FWlceh6RmGHE6Cu-27" value="&lt;b&gt;&lt;font style=&quot;font-size: 26px;&quot;&gt;Système intégré&lt;/font&gt;&lt;/b&gt;" style="verticalLabelPosition=bottom;html=1;verticalAlign=top;strokeWidth=1;align=center;outlineConnect=0;dashed=0;outlineConnect=0;shape=mxgraph.aws3d.application;fillColor=#4286c5;strokeColor=#57A2D8;aspect=fixed;" vertex="1" parent="MEh04FWlceh6RmGHE6Cu-1">
          <mxGeometry x="-864.8" y="2660" width="210" height="233.04" as="geometry" />
        </mxCell>
        <mxCell id="MEh04FWlceh6RmGHE6Cu-28" value="" style="image;html=1;image=img/lib/clip_art/general/Gear_128x128.png" vertex="1" parent="MEh04FWlceh6RmGHE6Cu-1">
          <mxGeometry x="-723.8" y="2696.72" width="181" height="170" as="geometry" />
        </mxCell>
        <mxCell id="MEh04FWlceh6RmGHE6Cu-29" value="&lt;b&gt;&lt;font style=&quot;font-size: 46px;&quot;&gt;Back-End&lt;/font&gt;&lt;/b&gt;" style="text;strokeColor=none;align=center;fillColor=none;html=1;verticalAlign=middle;whiteSpace=wrap;rounded=0;" vertex="1" parent="MEh04FWlceh6RmGHE6Cu-1">
          <mxGeometry x="2880" y="2600" width="410" height="160" as="geometry" />
        </mxCell>
        <mxCell id="MEh04FWlceh6RmGHE6Cu-30" value="&lt;b&gt;&lt;font style=&quot;font-size: 46px;&quot;&gt;Front-End&lt;/font&gt;&lt;/b&gt;" style="text;strokeColor=none;align=center;fillColor=none;html=1;verticalAlign=middle;whiteSpace=wrap;rounded=0;" vertex="1" parent="MEh04FWlceh6RmGHE6Cu-1">
          <mxGeometry x="3385.12" y="1914.6" width="410" height="160" as="geometry" />
        </mxCell>
        <mxCell id="MEh04FWlceh6RmGHE6Cu-31" value="" style="verticalLabelPosition=bottom;html=1;verticalAlign=top;strokeWidth=1;align=center;outlineConnect=0;dashed=0;outlineConnect=0;shape=mxgraph.aws3d.arrowSE;fillColor=#000000;aspect=fixed;rotation=330;" vertex="1" parent="MEh04FWlceh6RmGHE6Cu-1">
          <mxGeometry x="3850" y="3787.84" width="550.07" height="314.33" as="geometry" />
        </mxCell>
        <mxCell id="MEh04FWlceh6RmGHE6Cu-33" value="" style="aspect=fixed;sketch=0;html=1;dashed=0;whitespace=wrap;verticalLabelPosition=bottom;verticalAlign=top;fillColor=#2875E2;strokeColor=#ffffff;points=[[0.005,0.63,0],[0.1,0.2,0],[0.9,0.2,0],[0.5,0,0],[0.995,0.63,0],[0.72,0.99,0],[0.5,1,0],[0.28,0.99,0]];shape=mxgraph.kubernetes.icon2;kubernetesLabel=1;prIcon=api" vertex="1" parent="MEh04FWlceh6RmGHE6Cu-1">
          <mxGeometry x="1870" y="3756.36" width="317.78" height="303.64" as="geometry" />
        </mxCell>
        <mxCell id="MEh04FWlceh6RmGHE6Cu-34" value="&lt;strong style=&quot;background-color: initial;&quot;&gt;Système Intégré de Production&lt;/strong&gt;&lt;br&gt;&lt;ul&gt;&lt;li&gt;&lt;strong style=&quot;background-color: initial;&quot;&gt;Collecte des données de capteurs &lt;/strong&gt;&lt;span style=&quot;background-color: initial;&quot;&gt;Le système intégré dans l&#39;infrastructure de production collecte les données des capteurs (ex: température, pression) en temps réel. Ces données sont traitées et sauvegardées périodiquement sous forme de fichiers CSV.&lt;/span&gt;&lt;/li&gt;&lt;/ul&gt;" style="text;strokeColor=none;align=left;fillColor=none;html=1;verticalAlign=middle;whiteSpace=wrap;rounded=0;fontSize=42;" vertex="1" parent="MEh04FWlceh6RmGHE6Cu-1">
          <mxGeometry x="-1070" y="2920" width="890" height="620.29" as="geometry" />
        </mxCell>
        <mxCell id="MEh04FWlceh6RmGHE6Cu-35" value="&lt;h3&gt;Génération des données temporelles&lt;/h3&gt;&lt;ul&gt;&lt;li&gt;&lt;strong&gt;Rôle&lt;/strong&gt; : Le système génère et sauvegarde les données des capteurs sous format csv dans un entrepôt de données accessible a l&#39;utilisateur pour téléchargement avec des accès sécurisés.&lt;/li&gt;&lt;/ul&gt;" style="text;strokeColor=none;align=left;fillColor=none;html=1;verticalAlign=middle;whiteSpace=wrap;rounded=0;fontSize=42;" vertex="1" parent="MEh04FWlceh6RmGHE6Cu-1">
          <mxGeometry x="-560" y="3623.84" width="890" height="450" as="geometry" />
        </mxCell>
        <mxCell id="MEh04FWlceh6RmGHE6Cu-38" value="Modèle de classification temporelle multi-classe" style="outlineConnect=0;dashed=0;verticalLabelPosition=bottom;verticalAlign=top;align=center;html=1;shape=mxgraph.aws3.machine_learning;fillColor=#2E73B8;gradientColor=none;fontSize=25;fontStyle=1" vertex="1" parent="MEh04FWlceh6RmGHE6Cu-1">
          <mxGeometry x="2790" y="3707.74" width="160" height="185" as="geometry" />
        </mxCell>
        <mxCell id="MEh04FWlceh6RmGHE6Cu-40" value="&lt;b&gt;&lt;font style=&quot;font-size: 26px;&quot;&gt;Système intégré&lt;/font&gt;&lt;/b&gt;" style="verticalLabelPosition=bottom;html=1;verticalAlign=top;strokeWidth=1;align=center;outlineConnect=0;dashed=0;outlineConnect=0;shape=mxgraph.aws3d.application;fillColor=#4286c5;strokeColor=#57A2D8;aspect=fixed;" vertex="1" parent="MEh04FWlceh6RmGHE6Cu-1">
          <mxGeometry x="5184" y="3820.0000000000005" width="197.17" height="218.8" as="geometry" />
        </mxCell>
        <mxCell id="MEh04FWlceh6RmGHE6Cu-41" value="" style="image;html=1;image=img/lib/clip_art/general/Gear_128x128.png" vertex="1" parent="MEh04FWlceh6RmGHE6Cu-1">
          <mxGeometry x="5320" y="3880" width="181" height="170" as="geometry" />
        </mxCell>
        <mxCell id="MEh04FWlceh6RmGHE6Cu-44" value="" style="verticalLabelPosition=bottom;html=1;verticalAlign=top;strokeWidth=1;align=center;outlineConnect=0;dashed=0;outlineConnect=0;shape=mxgraph.aws3d.arrowSE;fillColor=#000000;aspect=fixed;rotation=60;" vertex="1" parent="MEh04FWlceh6RmGHE6Cu-1">
          <mxGeometry x="-817.78" y="3507.03" width="280" height="160" as="geometry" />
        </mxCell>
        <mxCell id="MEh04FWlceh6RmGHE6Cu-46" value="&lt;span style=&quot;font-size: 25px; font-weight: 700;&quot;&gt;Modèle de regression&lt;/span&gt;" style="outlineConnect=0;dashed=0;verticalLabelPosition=bottom;verticalAlign=top;align=center;html=1;shape=mxgraph.aws3.lex;fillColor=#2E73B8;gradientColor=none;" vertex="1" parent="MEh04FWlceh6RmGHE6Cu-1">
          <mxGeometry x="2810" y="3957.2" width="170" height="150" as="geometry" />
        </mxCell>
        <mxCell id="7w96Mp5E0gQdhD_1bvZw-0" value="" style="verticalLabelPosition=bottom;html=1;verticalAlign=top;strokeWidth=1;dashed=0;shape=mxgraph.aws3d.dashedArrowlessEdge;aspect=fixed;rounded=1;shadow=0;comic=0;fontFamily=Verdana;fontSize=12" vertex="1" parent="MEh04FWlceh6RmGHE6Cu-1">
          <mxGeometry x="2530" y="409.29" width="2004.6" height="1141.51" as="geometry" />
        </mxCell>
        <mxCell id="7w96Mp5E0gQdhD_1bvZw-1" value="" style="verticalLabelPosition=bottom;html=1;verticalAlign=top;strokeWidth=1;dashed=0;shape=mxgraph.aws3d.dashedArrowlessEdge;fillColor=#000000;aspect=fixed;rounded=1;shadow=0;comic=0;fontFamily=Verdana;fontSize=12;fontColor=#000000;flipV=1;" vertex="1" parent="MEh04FWlceh6RmGHE6Cu-1">
          <mxGeometry x="2543" y="40" width="651" height="369.29" as="geometry" />
        </mxCell>
        <mxCell id="7w96Mp5E0gQdhD_1bvZw-3" value="" style="verticalLabelPosition=bottom;html=1;verticalAlign=top;strokeWidth=1;dashed=0;shape=mxgraph.aws3d.dashedArrowlessEdge;fillColor=#000000;aspect=fixed;rounded=1;shadow=0;comic=0;fontFamily=Verdana;fontSize=12;fontColor=#000000;flipV=1;" vertex="1" parent="MEh04FWlceh6RmGHE6Cu-1">
          <mxGeometry x="4523" y="1175.3999999999999" width="661" height="374.97" as="geometry" />
        </mxCell>
        <mxCell id="7w96Mp5E0gQdhD_1bvZw-5" value="" style="verticalLabelPosition=bottom;html=1;verticalAlign=top;strokeWidth=1;align=center;outlineConnect=0;dashed=0;outlineConnect=0;shape=mxgraph.aws3d.arrowSE;fillColor=#000000;aspect=fixed;" vertex="1" parent="MEh04FWlceh6RmGHE6Cu-1">
          <mxGeometry x="3400" y="553.39" width="582.16" height="332.01" as="geometry" />
        </mxCell>
        <mxCell id="7w96Mp5E0gQdhD_1bvZw-8" value="&lt;b&gt;&lt;font style=&quot;font-size: 26px;&quot;&gt;Système intégré&lt;/font&gt;&lt;/b&gt;" style="verticalLabelPosition=bottom;html=1;verticalAlign=top;strokeWidth=1;align=center;outlineConnect=0;dashed=0;outlineConnect=0;shape=mxgraph.aws3d.application;fillColor=#4286c5;strokeColor=#57A2D8;aspect=fixed;" vertex="1" parent="MEh04FWlceh6RmGHE6Cu-1">
          <mxGeometry x="3143" y="298.6800000000001" width="197.17" height="218.8" as="geometry" />
        </mxCell>
        <mxCell id="7w96Mp5E0gQdhD_1bvZw-9" value="" style="image;html=1;image=img/lib/clip_art/general/Gear_128x128.png" vertex="1" parent="MEh04FWlceh6RmGHE6Cu-1">
          <mxGeometry x="3284" y="335.3999999999999" width="181" height="170" as="geometry" />
        </mxCell>
        <mxCell id="7w96Mp5E0gQdhD_1bvZw-10" value="&lt;b&gt;&lt;font style=&quot;font-size: 46px;&quot;&gt;Back-End&lt;/font&gt;&lt;/b&gt;" style="text;strokeColor=none;align=center;fillColor=none;html=1;verticalAlign=middle;whiteSpace=wrap;rounded=0;" vertex="1" parent="MEh04FWlceh6RmGHE6Cu-1">
          <mxGeometry x="4673" y="1090.8" width="410" height="160" as="geometry" />
        </mxCell>
        <mxCell id="7w96Mp5E0gQdhD_1bvZw-11" value="" style="verticalLabelPosition=bottom;html=1;verticalAlign=top;strokeWidth=1;dashed=0;shape=mxgraph.aws3d.dashedArrowlessEdge;aspect=fixed;rounded=1;shadow=0;comic=0;fontFamily=Verdana;fontSize=12" vertex="1" parent="MEh04FWlceh6RmGHE6Cu-1">
          <mxGeometry x="3183" y="40.00000000000004" width="1993.87" height="1135.4" as="geometry" />
        </mxCell>
        <mxCell id="7w96Mp5E0gQdhD_1bvZw-12" value="" style="verticalLabelPosition=bottom;aspect=fixed;html=1;shape=mxgraph.salesforce.web;" vertex="1" parent="MEh04FWlceh6RmGHE6Cu-1">
          <mxGeometry x="2630" y="1554.6" width="291.14" height="230" as="geometry" />
        </mxCell>
        <mxCell id="-FoQ5S4Xqof3RG6SGwV2-0" value="" style="verticalLabelPosition=bottom;html=1;verticalAlign=top;strokeWidth=1;dashed=0;shape=mxgraph.aws3d.arrowSW;fillColor=#000000;aspect=fixed;rounded=1;shadow=0;comic=0;fontFamily=Verdana;fontSize=12" vertex="1" parent="MEh04FWlceh6RmGHE6Cu-1">
          <mxGeometry x="2200" y="1840" width="431" height="242.8" as="geometry" />
        </mxCell>
        <mxCell id="-FoQ5S4Xqof3RG6SGwV2-1" value="" style="verticalLabelPosition=bottom;html=1;verticalAlign=top;strokeWidth=1;dashed=0;shape=mxgraph.aws3d.arrowSW;fillColor=#000000;aspect=fixed;rounded=1;shadow=0;comic=0;fontFamily=Verdana;fontSize=12" vertex="1" parent="MEh04FWlceh6RmGHE6Cu-1">
          <mxGeometry x="2923" y="1448.4099999999999" width="302.24" height="170.26" as="geometry" />
        </mxCell>
        <mxCell id="-FoQ5S4Xqof3RG6SGwV2-2" value="" style="verticalLabelPosition=bottom;html=1;verticalAlign=top;strokeWidth=1;dashed=0;shape=mxgraph.aws3d.arrowSW;fillColor=#000000;aspect=fixed;rounded=1;shadow=0;comic=0;fontFamily=Verdana;fontSize=12" vertex="1" parent="MEh04FWlceh6RmGHE6Cu-1">
          <mxGeometry x="3441.5" y="980.8" width="550.76" height="310.26" as="geometry" />
        </mxCell>
        <mxCell id="DWY5Lpk2v1SRJXLDwO9G-0" value="" style="shape=image;html=1;verticalAlign=top;verticalLabelPosition=bottom;labelBackgroundColor=#ffffff;imageAspect=0;aspect=fixed;image=https://cdn3.iconfinder.com/data/icons/document-icons-2/30/647708-excel-128.png" vertex="1" parent="MEh04FWlceh6RmGHE6Cu-1">
          <mxGeometry x="4000" y="852.8" width="187.2" height="187.2" as="geometry" />
        </mxCell>
        <mxCell id="FOiixVVrzLgUGiYo-TVB-0" value="&lt;font style=&quot;font-size: 26px;&quot;&gt;&amp;nbsp; &amp;nbsp;SaaS&lt;/font&gt;" style="label;whiteSpace=wrap;html=1;image=img/clipart/Gear_128x128.png" vertex="1" parent="MEh04FWlceh6RmGHE6Cu-1">
          <mxGeometry x="4505.42" y="2280" width="190" height="80" as="geometry" />
        </mxCell>
        <mxCell id="FOiixVVrzLgUGiYo-TVB-1" value="&lt;font style=&quot;font-size: 26px;&quot;&gt;&amp;nbsp; En Prem&lt;/font&gt;" style="label;whiteSpace=wrap;html=1;image=img/clipart/Gear_128x128.png" vertex="1" parent="MEh04FWlceh6RmGHE6Cu-1">
          <mxGeometry x="5184" y="1170.8" width="190" height="80" as="geometry" />
        </mxCell>
        <mxCell id="FOiixVVrzLgUGiYo-TVB-2" value="" style="verticalLabelPosition=bottom;html=1;verticalAlign=top;strokeWidth=1;dashed=0;shape=mxgraph.aws3d.dashedArrowlessEdge;aspect=fixed;rounded=1;shadow=0;comic=0;fontFamily=Verdana;fontSize=12" vertex="1" parent="MEh04FWlceh6RmGHE6Cu-1">
          <mxGeometry x="1820" y="750.8" width="2685.42" height="1529.2" as="geometry" />
        </mxCell>
        <mxCell id="FOiixVVrzLgUGiYo-TVB-3" value="" style="verticalLabelPosition=bottom;html=1;verticalAlign=top;strokeWidth=1;dashed=0;shape=mxgraph.aws3d.dashedArrowlessEdge;fillColor=#000000;aspect=fixed;rounded=1;shadow=0;comic=0;fontFamily=Verdana;fontSize=12;fontColor=#000000;flipV=1;" vertex="1" parent="MEh04FWlceh6RmGHE6Cu-1">
          <mxGeometry x="2320" y="2280" width="2185.42" height="1239.73" as="geometry" />
        </mxCell>
        <mxCell id="FOiixVVrzLgUGiYo-TVB-4" value="" style="verticalLabelPosition=bottom;html=1;verticalAlign=top;strokeWidth=1;dashed=0;shape=mxgraph.aws3d.dashedArrowlessEdge;fillColor=#000000;aspect=fixed;rounded=1;shadow=0;comic=0;fontFamily=Verdana;fontSize=12;fontColor=#000000;flipV=1;" vertex="1" parent="MEh04FWlceh6RmGHE6Cu-1">
          <mxGeometry x="-360" y="750.8" width="2185.42" height="1239.73" as="geometry" />
        </mxCell>
        <mxCell id="FOiixVVrzLgUGiYo-TVB-5" value="" style="verticalLabelPosition=bottom;html=1;verticalAlign=top;strokeWidth=1;dashed=0;shape=mxgraph.aws3d.dashedArrowlessEdge;aspect=fixed;rounded=1;shadow=0;comic=0;fontFamily=Verdana;fontSize=12" vertex="1" parent="MEh04FWlceh6RmGHE6Cu-1">
          <mxGeometry x="-360" y="2004.6" width="2685.42" height="1529.2" as="geometry" />
        </mxCell>
        <mxCell id="FOiixVVrzLgUGiYo-TVB-6" value="" style="shape=image;html=1;verticalAlign=top;verticalLabelPosition=bottom;labelBackgroundColor=#ffffff;imageAspect=0;aspect=fixed;image=https://cdn3.iconfinder.com/data/icons/document-icons-2/30/647708-excel-128.png" vertex="1" parent="MEh04FWlceh6RmGHE6Cu-1">
          <mxGeometry x="-787" y="3769.9999999999995" width="187.2" height="187.2" as="geometry" />
        </mxCell>
        <mxCell id="FOiixVVrzLgUGiYo-TVB-8" value="" style="aspect=fixed;sketch=0;html=1;dashed=0;whitespace=wrap;verticalLabelPosition=bottom;verticalAlign=top;fillColor=#2875E2;strokeColor=#ffffff;points=[[0.005,0.63,0],[0.1,0.2,0],[0.9,0.2,0],[0.5,0,0],[0.995,0.63,0],[0.72,0.99,0],[0.5,1,0],[0.28,0.99,0]];shape=mxgraph.kubernetes.icon2;kubernetesLabel=1;prIcon=user" vertex="1" parent="MEh04FWlceh6RmGHE6Cu-1">
          <mxGeometry x="-825.27" y="4340" width="282.47" height="270" as="geometry" />
        </mxCell>
        <mxCell id="FOiixVVrzLgUGiYo-TVB-9" value="" style="verticalLabelPosition=bottom;aspect=fixed;html=1;shape=mxgraph.salesforce.web;" vertex="1" parent="MEh04FWlceh6RmGHE6Cu-1">
          <mxGeometry x="808.86" y="3844.4200000000005" width="291.14" height="230" as="geometry" />
        </mxCell>
        <mxCell id="FOiixVVrzLgUGiYo-TVB-11" value="" style="verticalLabelPosition=bottom;html=1;verticalAlign=top;strokeWidth=1;dashed=0;shape=mxgraph.aws3d.secureConnection;fillColor=#000000;strokeColor=#ffffff;aspect=fixed;rounded=1;shadow=0;comic=0;fontSize=12;rotation=327;" vertex="1" parent="MEh04FWlceh6RmGHE6Cu-1">
          <mxGeometry x="1100" y="3908" width="125.06" height="74" as="geometry" />
        </mxCell>
        <mxCell id="FOiixVVrzLgUGiYo-TVB-12" value="" style="verticalLabelPosition=bottom;html=1;verticalAlign=top;strokeWidth=1;align=center;outlineConnect=0;dashed=0;outlineConnect=0;shape=mxgraph.aws3d.arrowSE;fillColor=#000000;aspect=fixed;rotation=330;" vertex="1" parent="MEh04FWlceh6RmGHE6Cu-1">
          <mxGeometry x="2266.87" y="3639.91" width="1067.5" height="610" as="geometry" />
        </mxCell>
        <mxCell id="FOiixVVrzLgUGiYo-TVB-13" value="" style="verticalLabelPosition=bottom;aspect=fixed;html=1;shape=mxgraph.salesforce.web;" vertex="1" parent="MEh04FWlceh6RmGHE6Cu-1">
          <mxGeometry x="3450" y="3830" width="291.14" height="230" as="geometry" />
        </mxCell>
        <mxCell id="FOiixVVrzLgUGiYo-TVB-14" value="" style="aspect=fixed;sketch=0;html=1;dashed=0;whitespace=wrap;verticalLabelPosition=bottom;verticalAlign=top;fillColor=#2875E2;strokeColor=#ffffff;points=[[0.005,0.63,0],[0.1,0.2,0],[0.9,0.2,0],[0.5,0,0],[0.995,0.63,0],[0.72,0.99,0],[0.5,1,0],[0.28,0.99,0]];shape=mxgraph.kubernetes.icon2;kubernetesLabel=1;prIcon=user" vertex="1" parent="MEh04FWlceh6RmGHE6Cu-1">
          <mxGeometry x="4459.18" y="3779.9999999999995" width="282.47" height="270" as="geometry" />
        </mxCell>
        <mxCell id="FOiixVVrzLgUGiYo-TVB-15" value="" style="verticalLabelPosition=bottom;html=1;verticalAlign=top;strokeWidth=1;align=center;outlineConnect=0;dashed=0;outlineConnect=0;shape=mxgraph.aws3d.arrowSE;fillColor=#000000;aspect=fixed;rotation=330;" vertex="1" parent="MEh04FWlceh6RmGHE6Cu-1">
          <mxGeometry x="4770" y="3844.42" width="351.69" height="200.97" as="geometry" />
        </mxCell>
        <mxCell id="B8SCIbUMy04u1MUU5SVS-0" value="&lt;h3&gt;Récupération des données temporelles&lt;/h3&gt;&lt;ul&gt;&lt;li&gt;&lt;strong&gt;Rôle&lt;/strong&gt; : L&#39;utilisateur (humain) récupère ces données manuellement et les injecte ensuite via une interface web sécurisée, nécessitant une authentification..&lt;/li&gt;&lt;/ul&gt;" style="text;strokeColor=none;align=left;fillColor=none;html=1;verticalAlign=middle;whiteSpace=wrap;rounded=0;fontSize=42;" vertex="1" parent="MEh04FWlceh6RmGHE6Cu-1">
          <mxGeometry x="-537.78" y="4450" width="1040" height="450" as="geometry" />
        </mxCell>
        <mxCell id="B8SCIbUMy04u1MUU5SVS-1" value="&lt;h4 style=&quot;font-size: 49px;&quot;&gt;&lt;font style=&quot;font-size: 49px;&quot;&gt;Front-End (Interface Utilisateur Web)&lt;/font&gt;&lt;/h4&gt;&lt;p style=&quot;font-size: 49px;&quot;&gt;L&#39;application web qui permet à l&#39;utilisateur de téléverser un fichier CSV contient des mécanismes de sécurité via JWT pour garantir que seules les personnes authentifiées puissent accéder aux fonctionnalités de prédiction.&lt;/p&gt;&lt;ul&gt;&lt;li&gt;&lt;strong&gt;Authentification de l&#39;utilisateur&lt;/strong&gt; :&lt;ul&gt;&lt;li&gt;L&#39;utilisateur entre son nom d&#39;utilisateur et son mot de passe dans un formulaire de connexion.&lt;/li&gt;&lt;li&gt;L&#39;application envoie une requête &lt;code&gt;POST&lt;/code&gt; avec les identifiants à l&#39;API Flask.&lt;/li&gt;&lt;li&gt;L&#39;API Flask valide les informations d&#39;identification, puis génère un token JWT si l&#39;utilisateur est authentifié avec succès.&lt;/li&gt;&lt;li&gt;Le token JWT est envoyé en réponse et stocké dans le &lt;code&gt;localStorage&lt;/code&gt; ou &lt;code&gt;sessionStorage&lt;/code&gt; du navigateur pour une utilisation ultérieure.&lt;/li&gt;&lt;/ul&gt;&lt;/li&gt;&lt;li&gt;&lt;strong&gt;Utilisation du token JWT&lt;/strong&gt; :&lt;ul&gt;&lt;li&gt;Pour toute demande à l&#39;API Flask (comme l&#39;envoi de fichiers CSV), le token JWT est inclus dans l&#39;en-tête &lt;code&gt;Authorization&lt;/code&gt; de la requête HTTP (&lt;code&gt;Authorization: Bearer &amp;lt;token&amp;gt;&lt;/code&gt;).&lt;/li&gt;&lt;li&gt;L&#39;API Flask vérifie le token JWT pour valider l&#39;accès avant de traiter la demande.&lt;/li&gt;&lt;/ul&gt;&lt;/li&gt;&lt;/ul&gt;" style="text;strokeColor=none;align=left;fillColor=none;html=1;verticalAlign=middle;whiteSpace=wrap;rounded=0;fontSize=42;" vertex="1" parent="MEh04FWlceh6RmGHE6Cu-1">
          <mxGeometry x="590" y="4102.17" width="890" height="1597.19" as="geometry" />
        </mxCell>
        <mxCell id="3jL5HAaN8Qg1_CHmL1TR-0" value="&lt;h3&gt; &lt;strong&gt;API de Prédiction&lt;/strong&gt;&lt;/h3&gt;&lt;ul&gt;&lt;li&gt;&lt;strong&gt;Rôle&lt;/strong&gt; : Reçoit les requêtes du service middleware, valide l&#39;authenticité de la requête, traite les données et appelle le modèle de prédiction.&lt;/li&gt;&lt;li&gt;&lt;strong&gt;Vérification d&#39;Authentification&lt;/strong&gt; :&lt;ul&gt;&lt;li&gt;L&#39;API extrait le token JWT de l&#39;en-tête &lt;code&gt;Authorization&lt;/code&gt; et le valide en utilisant sa clé publique.&lt;/li&gt;&lt;li&gt;Si l&#39;authentification est réussie, l&#39;API passe à l&#39;étape suivante, sinon elle rejette la requête avec un code d&#39;erreur approprié (ex. 401 Unauthorized).&lt;/li&gt;&lt;/ul&gt;&lt;/li&gt;&lt;li&gt;&lt;strong&gt;Validation des Données&lt;/strong&gt;&amp;nbsp;:&lt;/li&gt;&lt;ul&gt;&lt;li&gt;Effectue des vérifications supplémentaires sur les données reçues avant de les envoyer au modèles.&lt;/li&gt;&lt;/ul&gt;&lt;li&gt;&lt;b&gt;Envoyer au(x) modèles&lt;/b&gt;&amp;nbsp;:&lt;/li&gt;&lt;ul&gt;&lt;li&gt;Envoie au modele de regression pour completer les données si présence de données manquante a un seuil tolérable.&lt;/li&gt;&lt;li&gt;Envoie au modele de classification temporelle.&amp;nbsp;&lt;/li&gt;&lt;/ul&gt;&lt;li&gt;&lt;strong&gt;Envoi des Résultats au Service Middleware&lt;/strong&gt; :&lt;ul&gt;&lt;li&gt;L&#39;API renvoie les résultats des prédictions au service middleware via une réponse HTTP sécurisée.&lt;/li&gt;&lt;/ul&gt;&lt;/li&gt;&lt;/ul&gt;" style="text;strokeColor=none;align=left;fillColor=none;html=1;verticalAlign=middle;whiteSpace=wrap;rounded=0;fontSize=42;" vertex="1" parent="MEh04FWlceh6RmGHE6Cu-1">
          <mxGeometry x="1700.0000000000002" y="3999.9999999999995" width="1010" height="1470" as="geometry" />
        </mxCell>
        <mxCell id="3jL5HAaN8Qg1_CHmL1TR-1" value="" style="verticalLabelPosition=bottom;html=1;verticalAlign=top;strokeWidth=1;align=center;outlineConnect=0;dashed=0;outlineConnect=0;shape=mxgraph.aws3d.arrowSE;fillColor=#000000;aspect=fixed;rotation=60;" vertex="1" parent="MEh04FWlceh6RmGHE6Cu-1">
          <mxGeometry x="-825.27" y="4050" width="280" height="160" as="geometry" />
        </mxCell>
        <mxCell id="3jL5HAaN8Qg1_CHmL1TR-2" value="" style="verticalLabelPosition=bottom;html=1;verticalAlign=top;strokeWidth=1;align=center;outlineConnect=0;dashed=0;outlineConnect=0;shape=mxgraph.aws3d.arrowSE;fillColor=#000000;aspect=fixed;rotation=307;" vertex="1" parent="MEh04FWlceh6RmGHE6Cu-1">
          <mxGeometry x="-387.64" y="3855.23" width="1158.45" height="662" as="geometry" />
        </mxCell>
        <mxCell id="3jL5HAaN8Qg1_CHmL1TR-3" value="" style="verticalLabelPosition=bottom;html=1;verticalAlign=top;strokeWidth=1;dashed=0;shape=mxgraph.aws3d.secureConnection;fillColor=#000000;strokeColor=#ffffff;aspect=fixed;rounded=1;shadow=0;comic=0;fontSize=12;rotation=327;" vertex="1" parent="MEh04FWlceh6RmGHE6Cu-1">
          <mxGeometry x="-560" y="4438" width="125.06" height="74" as="geometry" />
        </mxCell>
        <mxCell id="3jL5HAaN8Qg1_CHmL1TR-4" value="&lt;ul&gt;&lt;b&gt;&lt;font style=&quot;font-size: 49px;&quot;&gt;Retour de la Prédiction par l&#39;API Flask&lt;/font&gt;&lt;/b&gt;&lt;ul style=&quot;&quot;&gt;&lt;font style=&quot;font-size: 42px;&quot;&gt;&lt;li style=&quot;&quot;&gt;L&#39;API renvoie cette réponse sous forme de données JSON à l&#39;utilisateur via le Front-End.&lt;/li&gt;&lt;li style=&quot;&quot;&gt;Le résultat peut inclure des détails supplémentaires comme :&lt;ul style=&quot;&quot;&gt;&lt;li style=&quot;&quot;&gt;Le statut de la prédiction (par exemple, &quot;Panne détectée&quot;).&lt;/li&gt;&lt;li style=&quot;&quot;&gt;Le score ou la probabilité associée à la prédiction.&lt;/li&gt;&lt;li style=&quot;&quot;&gt;Des informations supplémentaires comme des explications ou des recommandations, si nécessaire.&lt;/li&gt;&lt;/ul&gt;&lt;/li&gt;&lt;/font&gt;&lt;/ul&gt;&lt;/ul&gt;" style="text;strokeColor=none;align=left;fillColor=none;html=1;verticalAlign=middle;whiteSpace=wrap;rounded=0;fontSize=42;" vertex="1" parent="MEh04FWlceh6RmGHE6Cu-1">
          <mxGeometry x="3160" y="4030" width="1010" height="800.09" as="geometry" />
        </mxCell>
        <mxCell id="3jL5HAaN8Qg1_CHmL1TR-5" value="" style="verticalLabelPosition=bottom;html=1;verticalAlign=top;strokeWidth=1;align=center;outlineConnect=0;dashed=0;outlineConnect=0;shape=mxgraph.aws3d.arrowSE;fillColor=#000000;aspect=fixed;rotation=330;" vertex="1" parent="MEh04FWlceh6RmGHE6Cu-1">
          <mxGeometry x="1275.35" y="3780" width="550.07" height="314.33" as="geometry" />
        </mxCell>
      </root>
    </mxGraphModel>
  </diagram>
</mxfile>
